# xmcd CD database file
#
# Track frame offsets:
#	182
#	16007
#	27295
#	49045
#	60005
#	72670
#	89620
#	107330
#	118570
#	141220
#	158832
#	172682
#	187120
#	217882
#	239632
#	250907
#	263957
#	289532
#	305132
#	313420
#
# Disc length: 4313 seconds
#
# Revision: 1
# Processed by: cddbd v1.5.1PL0 Copyright (c) Steve Scherf et al.
# Submitted via: CDex 1.51
#
DISCID=1a10d714
DTITLE=Frederick Clarke - Images From The Sky Woven By Strings
DYEAR=1998
DGENRE=Jazz
TTITLE0=Two Maidens Holding Pearls (Gemini)
TTITLE1=A Man Pouring Water From An Urn (Aquarius)
TTITLE2=Chansons Des Poissons (Fish Songs) (Capricorn)
TTITLE3=Goat On An Alpine Mountaintop (Capricorn)
TTITLE4=Galloping Bull Seen At Sunset (Tauras)
TTITLE5=Sounds From The Bass Scales (Libra)
TTITLE6=Innocent Beauty In A Shimmering Gown (Virgo)
TTITLE7=Challenge Of The Archer (Sagittarius)
TTITLE8=Soaring Eagle (Scorpio)
TTITLE9=Gentle Sea Creature With A Shell (Cancer)
TTITLE10=The Ram's Dance (Aries)
TTITLE11=The Vibrant Lion (Leo)
TTITLE12=Asturias (Aldeniz)
TTITLE13=Praeludium (J.S. Bach)
TTITLE14=Afro-Cuban Lullaby (Traditional)
TTITLE15=Gymnopedie No. 1 (Satie)
TTITLE16=Two Fantasies (Mudarra, Dowland)
TTITLE17=Greensleeves (Arr. Clarke)
TTITLE18=Canarios (Sanz)
TTITLE19=Saltarello (Annonymous)
EXTD=YEAR: 1998
EXTT0=
EXTT1=
EXTT2=
EXTT3=
EXTT4=
EXTT5=
EXTT6=
EXTT7=
EXTT8=
EXTT9=
EXTT10=
EXTT11=
EXTT12=
EXTT13=
EXTT14=
EXTT15=
EXTT16=
EXTT17=
EXTT18=
EXTT19=
PLAYORDER=
